#N canvas 6 0 1280 752 10;
#X obj 917 183 loadbang;
#X obj 917 207 delay 100;
#X obj 920 233 + 1;
#X msg 919 259 \; pd dsp 1;
#X obj 732 760 dac~ 1;
#X obj 765 630 readsf~ 1;
#X obj 822 662 bng 15 250 50 0 empty empty empty 17 7 0 10 -262144
-1 -1;
#X obj 938 392 random 6;
#X obj 942 419 sel 0 1 2 3 4 5;
#X msg 619 487 open m01.wav \, 1;
#X msg 720 486 open m02.wav \, 1;
#X msg 816 487 open m03.wav \, 1;
#X msg 917 487 open m04.wav \, 1;
#X msg 1018 486 open m05.wav \, 1;
#X msg 1114 487 open m06.wav \, 1;
#X obj 801 336 notein;
#X obj 795 388 bng 15 250 50 0 empty empty empty 17 7 0 10 -262144
-1 -1;
#X floatatom 835 386 5 0 0 0 - - -;
#X connect 0 0 1 0;
#X connect 1 0 2 0;
#X connect 2 0 3 0;
#X connect 5 0 4 0;
#X connect 5 1 6 0;
#X connect 7 0 8 0;
#X connect 8 0 9 0;
#X connect 8 1 10 0;
#X connect 8 2 11 0;
#X connect 8 3 12 0;
#X connect 8 4 13 0;
#X connect 8 5 14 0;
#X connect 9 0 5 0;
#X connect 10 0 5 0;
#X connect 11 0 5 0;
#X connect 12 0 5 0;
#X connect 13 0 5 0;
#X connect 14 0 5 0;
#X connect 15 0 17 0;
#X connect 16 0 7 0;
#X connect 17 0 16 0;
